<?xml version="1.0" encoding="UTF-8" standalone="no"?>
<svg
   width="5793"
   height="118"
   viewBox="0 0 5793 118"
   fill="none"
   version="1.1"
   id="svg1"
   sodipodi:docname="about_divide_1.svg"
   inkscape:version="1.3.2 (091e20e, 2023-11-25, custom)"
   xmlns:inkscape="http://www.inkscape.org/namespaces/inkscape"
   xmlns:sodipodi="http://sodipodi.sourceforge.net/DTD/sodipodi-0.dtd"
   xmlns="http://www.w3.org/2000/svg"
   xmlns:svg="http://www.w3.org/2000/svg">
  <defs
     id="defs1" />
  <sodipodi:namedview
     id="namedview1"
     pagecolor="#ffffff"
     bordercolor="#000000"
     borderopacity="0.25"
     inkscape:showpageshadow="2"
     inkscape:pageopacity="0.0"
     inkscape:pagecheckerboard="0"
     inkscape:deskcolor="#d1d1d1"
     inkscape:zoom="0.18122977"
     inkscape:cx="402.80357"
     inkscape:cy="-791.81249"
     inkscape:window-width="1920"
     inkscape:window-height="1009"
     inkscape:window-x="1912"
     inkscape:window-y="-8"
     inkscape:window-maximized="1"
     inkscape:current-layer="svg1" />
  <g
     id="g1"
     transform="translate(-1.1208147,-0.5)">
    <path
       d="m -85.73486,74.5 c 72.5,0 0,-73.5 72.5,-73.5 72.5,0 0,73.5 74.5,73.5 74.5,0 0,-73.5 73.5,-73.5 73.5,0 0,73.5 73.5,73.5 73.5,0 0,-73.500061 73.5,-73.5 73.5,6e-5 0,73.5 73.5,73.5 73.5,0 0,-73.5 73.5,-73.5 73.5,0 0,73.5 73.5,73.5 73.5,0 0,-73.5 73.5,-73.5 73.5,0 0,73.5 73.5,73.5 73.5,0 0,-73.5 73.5,-73.5 73.5,0 0,73.5 73.5,73.5 73.5,0 0,-73.5 73.5,-73.5 73.5,0 0,73.5 73.5,73.5 73.49996,0 0,-73.5 73.49996,-73.5 73.5,0 0,73.5 73.5,73.5 73.5,0 0,-73.5 73.5,-73.5 73.5,0 0,73.5 73.5,73.5 73.5,0 0,-73.5 73.5,-73.5 73.5,0 0,73.5 73.5,73.5"
       stroke="#000000"
       id="path1" />
    <path
       d="m 1.135434,117.07882 c 72.5,0 0,-73.499959 72.5,-73.499959 72.499996,0 0,73.499959 74.499996,73.499959 74.5,0 0,-73.499959 73.5,-73.499959 73.5,0 0,73.499959 73.5,73.499959 73.5,0 0,-73.500019 73.5,-73.499959 73.5,6e-5 0,73.499959 73.5,73.499959 73.5,0 0,-73.499959 73.5,-73.499959 73.5,0 0,73.499959 73.5,73.499959 73.5,0 0,-73.499959 73.5,-73.499959 73.5,0 0,73.499959 73.5,73.499959 73.5,0 0,-73.499959 73.5,-73.499959 73.5,0 0,73.499959 73.5,73.499959 73.5,0 0,-73.499959 73.5,-73.499959 73.49997,0 0,73.499959 73.49997,73.499959 73.5,0 0,-73.499959 73.5,-73.499959 73.5,0 0,73.499959 73.5,73.499959 73.5,0 0,-73.499959 73.5,-73.499959 73.5,0 0,73.499959 73.5,73.499959 73.5,0 0,-73.499959 73.5,-73.499959 73.5,0 0,73.499959 73.5,73.499959"
       stroke="#000000"
       id="path1-4" />
  </g>
  <g
     id="g3"
     transform="translate(1468.8707,-0.5)">
    <path
       d="m -85.73486,74.5 c 72.5,0 0,-73.5 72.5,-73.5 72.5,0 0,73.5 74.5,73.5 74.5,0 0,-73.5 73.5,-73.5 73.5,0 0,73.5 73.5,73.5 73.5,0 0,-73.500061 73.5,-73.5 73.5,6e-5 0,73.5 73.5,73.5 73.5,0 0,-73.5 73.5,-73.5 73.5,0 0,73.5 73.5,73.5 73.5,0 0,-73.5 73.5,-73.5 73.5,0 0,73.5 73.5,73.5 73.5,0 0,-73.5 73.5,-73.5 73.5,0 0,73.5 73.5,73.5 73.5,0 0,-73.5 73.5,-73.5 73.5,0 0,73.5 73.5,73.5 73.49996,0 0,-73.5 73.49996,-73.5 73.5,0 0,73.5 73.5,73.5 73.5,0 0,-73.5 73.5,-73.5 73.5,0 0,73.5 73.5,73.5 73.5,0 0,-73.5 73.5,-73.5 73.5,0 0,73.5 73.5,73.5"
       stroke="#000000"
       id="path2" />
    <path
       d="m 1.135434,117.07882 c 72.5,0 0,-73.499959 72.5,-73.499959 72.499996,0 0,73.499959 74.499996,73.499959 74.5,0 0,-73.499959 73.5,-73.499959 73.5,0 0,73.499959 73.5,73.499959 73.5,0 0,-73.500019 73.5,-73.499959 73.5,6e-5 0,73.499959 73.5,73.499959 73.5,0 0,-73.499959 73.5,-73.499959 73.5,0 0,73.499959 73.5,73.499959 73.5,0 0,-73.499959 73.5,-73.499959 73.5,0 0,73.499959 73.5,73.499959 73.5,0 0,-73.499959 73.5,-73.499959 73.5,0 0,73.499959 73.5,73.499959 73.5,0 0,-73.499959 73.5,-73.499959 73.49997,0 0,73.499959 73.49997,73.499959 73.5,0 0,-73.499959 73.5,-73.499959 73.5,0 0,73.499959 73.5,73.499959 73.5,0 0,-73.499959 73.5,-73.499959 73.5,0 0,73.499959 73.5,73.499959 73.5,0 0,-73.499959 73.5,-73.499959 73.5,0 0,73.499959 73.5,73.499959"
       stroke="#000000"
       id="path3" />
  </g>
  <g
     id="g5"
     transform="translate(2938.8373,-0.49935806)">
    <path
       d="m -85.73486,74.5 c 72.5,0 0,-73.5 72.5,-73.5 72.5,0 0,73.5 74.5,73.5 74.5,0 0,-73.5 73.5,-73.5 73.5,0 0,73.5 73.5,73.5 73.5,0 0,-73.500061 73.5,-73.5 73.5,6e-5 0,73.5 73.5,73.5 73.5,0 0,-73.5 73.5,-73.5 73.5,0 0,73.5 73.5,73.5 73.5,0 0,-73.5 73.5,-73.5 73.5,0 0,73.5 73.5,73.5 73.5,0 0,-73.5 73.5,-73.5 73.5,0 0,73.5 73.5,73.5 73.5,0 0,-73.5 73.5,-73.5 73.5,0 0,73.5 73.5,73.5 73.49996,0 0,-73.5 73.49996,-73.5 73.5,0 0,73.5 73.5,73.5 73.5,0 0,-73.5 73.5,-73.5 73.5,0 0,73.5 73.5,73.5 73.5,0 0,-73.5 73.5,-73.5 73.5,0 0,73.5 73.5,73.5"
       stroke="#000000"
       id="path4" />
    <path
       d="m 1.135434,117.07882 c 72.5,0 0,-73.499959 72.5,-73.499959 72.499996,0 0,73.499959 74.499996,73.499959 74.5,0 0,-73.499959 73.5,-73.499959 73.5,0 0,73.499959 73.5,73.499959 73.5,0 0,-73.500019 73.5,-73.499959 73.5,6e-5 0,73.499959 73.5,73.499959 73.5,0 0,-73.499959 73.5,-73.499959 73.5,0 0,73.499959 73.5,73.499959 73.5,0 0,-73.499959 73.5,-73.499959 73.5,0 0,73.499959 73.5,73.499959 73.5,0 0,-73.499959 73.5,-73.499959 73.5,0 0,73.499959 73.5,73.499959 73.5,0 0,-73.499959 73.5,-73.499959 73.49997,0 0,73.499959 73.49997,73.499959 73.5,0 0,-73.499959 73.5,-73.499959 73.5,0 0,73.499959 73.5,73.499959 73.5,0 0,-73.499959 73.5,-73.499959 73.5,0 0,73.499959 73.5,73.499959 73.5,0 0,-73.499959 73.5,-73.499959 73.5,0 0,73.499959 73.5,73.499959"
       stroke="#000000"
       id="path5" />
  </g>
  <g
     id="g7"
     transform="translate(4408.8288,-0.49935806)">
    <path
       d="m -85.73486,74.5 c 72.5,0 0,-73.5 72.5,-73.5 72.5,0 0,73.5 74.5,73.5 74.5,0 0,-73.5 73.5,-73.5 73.5,0 0,73.5 73.5,73.5 73.5,0 0,-73.500061 73.5,-73.5 73.5,6e-5 0,73.5 73.5,73.5 73.5,0 0,-73.5 73.5,-73.5 73.5,0 0,73.5 73.5,73.5 73.5,0 0,-73.5 73.5,-73.5 73.5,0 0,73.5 73.5,73.5 73.5,0 0,-73.5 73.5,-73.5 73.5,0 0,73.5 73.5,73.5 73.5,0 0,-73.5 73.5,-73.5 73.5,0 0,73.5 73.5,73.5 73.49996,0 0,-73.5 73.49996,-73.5 73.5,0 0,73.5 73.5,73.5 73.5,0 0,-73.5 73.5,-73.5 73.5,0 0,73.5 73.5,73.5 73.5,0 0,-73.5 73.5,-73.5 73.5,0 0,73.5 73.5,73.5"
       stroke="#000000"
       id="path6" />
    <path
       d="m 1.135434,117.07882 c 72.5,0 0,-73.499959 72.5,-73.499959 72.499996,0 0,73.499959 74.499996,73.499959 74.5,0 0,-73.499959 73.5,-73.499959 73.5,0 0,73.499959 73.5,73.499959 73.5,0 0,-73.500019 73.5,-73.499959 73.5,6e-5 0,73.499959 73.5,73.499959 73.5,0 0,-73.499959 73.5,-73.499959 73.5,0 0,73.499959 73.5,73.499959 73.5,0 0,-73.499959 73.5,-73.499959 73.5,0 0,73.499959 73.5,73.499959 73.5,0 0,-73.499959 73.5,-73.499959 73.5,0 0,73.499959 73.5,73.499959 73.5,0 0,-73.499959 73.5,-73.499959 73.49997,0 0,73.499959 73.49997,73.499959 73.5,0 0,-73.499959 73.5,-73.499959 73.5,0 0,73.499959 73.5,73.499959 73.5,0 0,-73.499959 73.5,-73.499959 73.5,0 0,73.499959 73.5,73.499959 73.5,0 0,-73.499959 73.5,-73.499959 73.5,0 0,73.499959 73.5,73.499959"
       stroke="#000000"
       id="path7" />
  </g>
</svg>
